STARTFONT 2.1
FONT -Adobe-Times-Bold-R-Normal--11-80-100-100-P-57-ISO8859-2
SIZE 8 100 100
FONTBOUNDINGBOX 12 13 -1 -3
COMMENT $XConsortium: timB08.bdf,v 1.7 95/01/26 17:57:59 gildea Exp $
COMMENT 
COMMENT +
COMMENT  Copyright 1984-1989, 1994 Adobe Systems Incorporated.
COMMENT  Copyright 1988, 1994 Digital Equipment Corporation.
COMMENT
COMMENT  Adobe is a trademark of Adobe Systems Incorporated which may be
COMMENT  registered in certain jurisdictions.
COMMENT  Permission to use these trademarks is hereby granted only in
COMMENT  association with the images described in this file.
COMMENT
COMMENT  Permission to use, copy, modify, distribute and sell this software
COMMENT  and its documentation for any purpose and without fee is hereby
COMMENT  granted, provided that the above copyright notices appear in all
COMMENT  copies and that both those copyright notices and this permission
COMMENT  notice appear in supporting documentation, and that the names of
COMMENT  Adobe Systems and Digital Equipment Corporation not be used in
COMMENT  advertising or publicity pertaining to distribution of the software
COMMENT  without specific, written prior permission.  Adobe Systems and
COMMENT  Digital Equipment Corporation make no representations about the
COMMENT  suitability of this software for any purpose.  It is provided "as
COMMENT  is" without express or implied warranty.
COMMENT -
COMMENT  
COMMENT  Translation to ISO8859-2 by Cub Soft;  Petr.Kolar@vslib.cz
COMMENT  
STARTPROPERTIES 28
FOUNDRY "Adobe"
FAMILY_NAME "Times"
WEIGHT_NAME "Bold"
SLANT "R"
SETWIDTH_NAME "Normal"
ADD_STYLE_NAME ""
PIXEL_SIZE 11
POINT_SIZE 80
RESOLUTION_X 100
RESOLUTION_Y 100
SPACING "P"
AVERAGE_WIDTH 57
CHARSET_REGISTRY "ISO8859"
CHARSET_ENCODING "2"
CAP_HEIGHT 7
X_HEIGHT 5
FONT_ASCENT 8
FONT_DESCENT 3
FACE_NAME "Times Bold"

STARTCHAR space
ENCODING 32
SWIDTH 250 0
DWIDTH 2 0
BBX 1 1 0 0
BITMAP
00
ENDCHAR
STARTCHAR exclam
ENCODING 33
SWIDTH 333 0
DWIDTH 4 0
BBX 2 7 1 0
BITMAP
c0
c0
c0
c0
00
c0
c0
ENDCHAR
STARTCHAR quotedbl
ENCODING 34
SWIDTH 555 0
DWIDTH 5 0
BBX 3 3 1 4
BITMAP
a0
a0
a0
ENDCHAR
STARTCHAR numbersign
ENCODING 35
SWIDTH 500 0
DWIDTH 6 0
BBX 5 7 0 0
BITMAP
50
50
f8
50
f8
50
50
ENDCHAR
STARTCHAR dollar
ENCODING 36
SWIDTH 500 0
DWIDTH 5 0
BBX 5 9 0 -1
BITMAP
20
70
b8
e0
60
30
b8
70
20
ENDCHAR
STARTCHAR percent
ENCODING 37
SWIDTH 1000 0
DWIDTH 9 0
BBX 7 7 1 0
BITMAP
76
dc
e8
10
2e
5a
9c
ENDCHAR
STARTCHAR ampersand
ENCODING 38
SWIDTH 833 0
DWIDTH 9 0
BBX 7 7 1 0
BITMAP
30
68
68
76
dc
cc
76
ENDCHAR
STARTCHAR apostrophe
ENCODING 39
SWIDTH 333 0
DWIDTH 4 0
BBX 2 3 1 4
BITMAP
c0
c0
40
ENDCHAR
STARTCHAR parenleft
ENCODING 40
SWIDTH 333 0
DWIDTH 3 0
BBX 3 10 -1 -3
BITMAP
20
60
40
c0
c0
c0
c0
40
60
20
ENDCHAR
STARTCHAR parenright
ENCODING 41
SWIDTH 333 0
DWIDTH 4 0
BBX 3 10 0 -3
BITMAP
80
c0
40
60
60
60
60
40
c0
80
ENDCHAR
STARTCHAR asterisk
ENCODING 42
SWIDTH 500 0
DWIDTH 6 0
BBX 5 5 0 2
BITMAP
20
f8
70
f8
20
ENDCHAR
STARTCHAR plus
ENCODING 43
SWIDTH 570 0
DWIDTH 6 0
BBX 5 5 0 0
BITMAP
20
20
f8
20
20
ENDCHAR
STARTCHAR comma
ENCODING 44
SWIDTH 250 0
DWIDTH 4 0
BBX 2 3 1 -1
BITMAP
c0
c0
40
ENDCHAR
STARTCHAR minus
ENCODING 45
SWIDTH 570 0
DWIDTH 7 0
BBX 5 1 1 2
BITMAP
f8
ENDCHAR
STARTCHAR period
ENCODING 46
SWIDTH 250 0
DWIDTH 3 0
BBX 2 2 0 0
BITMAP
c0
c0
ENDCHAR
STARTCHAR slash
ENCODING 47
SWIDTH 278 0
DWIDTH 3 0
BBX 3 7 0 0
BITMAP
20
20
60
40
c0
80
80
ENDCHAR
STARTCHAR zero
ENCODING 48
SWIDTH 500 0
DWIDTH 5 0
BBX 4 7 0 0
BITMAP
60
d0
d0
d0
d0
d0
60
ENDCHAR
STARTCHAR one
ENCODING 49
SWIDTH 500 0
DWIDTH 5 0
BBX 4 7 0 0
BITMAP
60
e0
60
60
60
60
f0
ENDCHAR
STARTCHAR two
ENCODING 50
SWIDTH 500 0
DWIDTH 5 0
BBX 4 7 0 0
BITMAP
60
f0
30
20
40
f0
f0
ENDCHAR
STARTCHAR three
ENCODING 51
SWIDTH 500 0
DWIDTH 5 0
BBX 4 7 0 0
BITMAP
60
b0
30
60
30
b0
e0
ENDCHAR
STARTCHAR four
ENCODING 52
SWIDTH 500 0
DWIDTH 5 0
BBX 5 7 0 0
BITMAP
10
30
50
90
f8
30
30
ENDCHAR
STARTCHAR five
ENCODING 53
SWIDTH 500 0
DWIDTH 5 0
BBX 4 7 0 0
BITMAP
e0
e0
80
e0
30
b0
e0
ENDCHAR
STARTCHAR six
ENCODING 54
SWIDTH 500 0
DWIDTH 5 0
BBX 4 7 0 0
BITMAP
30
60
c0
f0
d0
d0
60
ENDCHAR
STARTCHAR seven
ENCODING 55
SWIDTH 500 0
DWIDTH 5 0
BBX 5 7 0 0
BITMAP
78
f0
90
30
20
60
60
ENDCHAR
STARTCHAR eight
ENCODING 56
SWIDTH 500 0
DWIDTH 5 0
BBX 4 7 0 0
BITMAP
60
d0
d0
60
b0
b0
60
ENDCHAR
STARTCHAR nine
ENCODING 57
SWIDTH 500 0
DWIDTH 5 0
BBX 4 7 0 0
BITMAP
60
b0
b0
b0
70
30
e0
ENDCHAR
STARTCHAR colon
ENCODING 58
SWIDTH 333 0
DWIDTH 4 0
BBX 2 5 1 0
BITMAP
c0
c0
00
c0
c0
ENDCHAR
STARTCHAR semicolon
ENCODING 59
SWIDTH 333 0
DWIDTH 4 0
BBX 2 6 1 -1
BITMAP
c0
c0
00
c0
c0
40
ENDCHAR
STARTCHAR less
ENCODING 60
SWIDTH 570 0
DWIDTH 6 0
BBX 5 5 0 0
BITMAP
18
70
c0
70
18
ENDCHAR
STARTCHAR equal
ENCODING 61
SWIDTH 570 0
DWIDTH 6 0
BBX 5 3 0 1
BITMAP
f8
00
f8
ENDCHAR
STARTCHAR greater
ENCODING 62
SWIDTH 570 0
DWIDTH 6 0
BBX 5 5 0 0
BITMAP
c0
70
18
70
c0
ENDCHAR
STARTCHAR question
ENCODING 63
SWIDTH 500 0
DWIDTH 6 0
BBX 4 7 1 0
BITMAP
60
b0
b0
20
00
60
60
ENDCHAR
STARTCHAR at
ENCODING 64
SWIDTH 930 0
DWIDTH 11 0
BBX 10 9 0 -2
BITMAP
1f00
3080
6d40
da40
d240
d280
cd00
6000
3e00
ENDCHAR
STARTCHAR A
ENCODING 65
SWIDTH 722 0
DWIDTH 7 0
BBX 8 7 -1 0
BITMAP
10
18
38
2c
7c
4e
ef
ENDCHAR
STARTCHAR B
ENCODING 66
SWIDTH 667 0
DWIDTH 7 0
BBX 6 7 0 0
BITMAP
f8
6c
6c
78
6c
6c
f8
ENDCHAR
STARTCHAR C
ENCODING 67
SWIDTH 722 0
DWIDTH 7 0
BBX 6 7 0 0
BITMAP
7c
cc
c0
c0
c0
ec
78
ENDCHAR
STARTCHAR D
ENCODING 68
SWIDTH 722 0
DWIDTH 8 0
BBX 7 7 0 0
BITMAP
fc
66
66
66
66
66
fc
ENDCHAR
STARTCHAR E
ENCODING 69
SWIDTH 667 0
DWIDTH 7 0
BBX 6 7 0 0
BITMAP
fc
64
60
78
60
64
fc
ENDCHAR
STARTCHAR F
ENCODING 70
SWIDTH 611 0
DWIDTH 7 0
BBX 6 7 0 0
BITMAP
fc
64
68
78
68
60
f0
ENDCHAR
STARTCHAR G
ENCODING 71
SWIDTH 778 0
DWIDTH 7 0
BBX 6 7 0 0
BITMAP
7c
cc
c0
dc
cc
cc
78
ENDCHAR
STARTCHAR H
ENCODING 72
SWIDTH 778 0
DWIDTH 9 0
BBX 8 7 0 0
BITMAP
e7
66
66
7e
66
66
e7
ENDCHAR
STARTCHAR I
ENCODING 73
SWIDTH 389 0
DWIDTH 5 0
BBX 4 7 0 0
BITMAP
f0
60
60
60
60
60
f0
ENDCHAR
STARTCHAR J
ENCODING 74
SWIDTH 500 0
DWIDTH 5 0
BBX 5 8 0 -1
BITMAP
78
30
30
30
30
30
b0
e0
ENDCHAR
STARTCHAR K
ENCODING 75
SWIDTH 778 0
DWIDTH 8 0
BBX 7 7 0 0
BITMAP
ee
64
68
78
6c
6e
e6
ENDCHAR
STARTCHAR L
ENCODING 76
SWIDTH 667 0
DWIDTH 7 0
BBX 6 7 0 0
BITMAP
f0
60
60
60
64
6c
fc
ENDCHAR
STARTCHAR M
ENCODING 77
SWIDTH 944 0
DWIDTH 10 0
BBX 9 7 0 0
BITMAP
f380
7700
5b00
5b00
5b00
4b00
e380
ENDCHAR
STARTCHAR N
ENCODING 78
SWIDTH 722 0
DWIDTH 8 0
BBX 7 7 0 0
BITMAP
ee
64
74
5c
5c
4c
e4
ENDCHAR
STARTCHAR O
ENCODING 79
SWIDTH 778 0
DWIDTH 7 0
BBX 6 7 0 0
BITMAP
78
cc
cc
cc
cc
cc
78
ENDCHAR
STARTCHAR P
ENCODING 80
SWIDTH 611 0
DWIDTH 6 0
BBX 6 7 0 0
BITMAP
f8
6c
6c
78
60
60
f0
ENDCHAR
STARTCHAR Q
ENCODING 81
SWIDTH 778 0
DWIDTH 7 0
BBX 6 9 0 -2
BITMAP
78
cc
cc
cc
cc
cc
78
30
1c
ENDCHAR
STARTCHAR R
ENCODING 82
SWIDTH 722 0
DWIDTH 7 0
BBX 7 7 0 0
BITMAP
f8
6c
6c
78
68
6c
ee
ENDCHAR
STARTCHAR S
ENCODING 83
SWIDTH 556 0
DWIDTH 6 0
BBX 5 7 0 0
BITMAP
78
c8
e0
70
38
98
f0
ENDCHAR
STARTCHAR T
ENCODING 84
SWIDTH 667 0
DWIDTH 7 0
BBX 6 7 0 0
BITMAP
fc
b4
30
30
30
30
78
ENDCHAR
STARTCHAR U
ENCODING 85
SWIDTH 722 0
DWIDTH 7 0
BBX 7 7 0 0
BITMAP
f6
64
64
64
64
64
38
ENDCHAR
STARTCHAR V
ENCODING 86
SWIDTH 722 0
DWIDTH 8 0
BBX 8 7 0 0
BITMAP
f3
62
74
34
38
18
10
ENDCHAR
STARTCHAR W
ENCODING 87
SWIDTH 1000 0
DWIDTH 10 0
BBX 10 7 0 0
BITMAP
eec0
6c80
6d80
6d00
3700
3600
1200
ENDCHAR
STARTCHAR X
ENCODING 88
SWIDTH 722 0
DWIDTH 7 0
BBX 7 7 0 0
BITMAP
e6
64
38
38
2c
4c
de
ENDCHAR
STARTCHAR Y
ENCODING 89
SWIDTH 722 0
DWIDTH 8 0
BBX 8 7 0 0
BITMAP
f7
62
34
38
18
18
3c
ENDCHAR
STARTCHAR Z
ENCODING 90
SWIDTH 667 0
DWIDTH 7 0
BBX 6 7 0 0
BITMAP
fc
cc
98
30
64
cc
fc
ENDCHAR
STARTCHAR bracketleft
ENCODING 91
SWIDTH 333 0
DWIDTH 4 0
BBX 3 10 0 -3
BITMAP
e0
c0
c0
c0
c0
c0
c0
c0
c0
e0
ENDCHAR
STARTCHAR backslash
ENCODING 92
SWIDTH 278 0
DWIDTH 3 0
BBX 3 7 0 0
BITMAP
80
80
c0
40
60
20
20
ENDCHAR
STARTCHAR bracketright
ENCODING 93
SWIDTH 333 0
DWIDTH 4 0
BBX 3 10 0 -3
BITMAP
e0
60
60
60
60
60
60
60
60
e0
ENDCHAR
STARTCHAR asciicircum
ENCODING 94
SWIDTH 581 0
DWIDTH 6 0
BBX 5 4 0 3
BITMAP
20
70
d8
88
ENDCHAR
STARTCHAR underscore
ENCODING 95
SWIDTH 500 0
DWIDTH 5 0
BBX 5 1 0 -3
BITMAP
f8
ENDCHAR
STARTCHAR grave
ENCODING 96
SWIDTH 333 0
DWIDTH 4 0
BBX 2 2 0 6
BITMAP
80
40
ENDCHAR
STARTCHAR a
ENCODING 97
SWIDTH 500 0
DWIDTH 5 0
BBX 5 5 0 0
BITMAP
60
b0
70
b0
f8
ENDCHAR
STARTCHAR b
ENCODING 98
SWIDTH 556 0
DWIDTH 5 0
BBX 5 7 -1 0
BITMAP
e0
60
70
68
68
68
70
ENDCHAR
STARTCHAR c
ENCODING 99
SWIDTH 444 0
DWIDTH 5 0
BBX 4 5 0 0
BITMAP
70
d0
c0
d0
70
ENDCHAR
STARTCHAR d
ENCODING 100
SWIDTH 556 0
DWIDTH 6 0
BBX 6 7 0 0
BITMAP
38
18
78
d8
d8
d8
6c
ENDCHAR
STARTCHAR e
ENCODING 101
SWIDTH 444 0
DWIDTH 5 0
BBX 4 5 0 0
BITMAP
70
d0
f0
c0
70
ENDCHAR
STARTCHAR f
ENCODING 102
SWIDTH 333 0
DWIDTH 3 0
BBX 4 7 -1 0
BITMAP
30
60
f0
60
60
60
f0
ENDCHAR
STARTCHAR g
ENCODING 103
SWIDTH 500 0
DWIDTH 5 0
BBX 5 8 0 -3
BITMAP
78
d0
d0
70
c0
f0
90
f0
ENDCHAR
STARTCHAR h
ENCODING 104
SWIDTH 556 0
DWIDTH 5 0
BBX 6 7 -1 0
BITMAP
e0
60
78
68
68
68
6c
ENDCHAR
STARTCHAR i
ENCODING 105
SWIDTH 278 0
DWIDTH 3 0
BBX 2 7 0 0
BITMAP
c0
00
c0
c0
c0
c0
c0
ENDCHAR
STARTCHAR j
ENCODING 106
SWIDTH 333 0
DWIDTH 4 0
BBX 3 10 0 -3
BITMAP
60
00
60
60
60
60
60
60
60
c0
ENDCHAR
STARTCHAR k
ENCODING 107
SWIDTH 556 0
DWIDTH 5 0
BBX 6 7 -1 0
BITMAP
e0
60
6c
68
70
68
ec
ENDCHAR
STARTCHAR l
ENCODING 108
SWIDTH 278 0
DWIDTH 3 0
BBX 3 7 -1 0
BITMAP
e0
60
60
60
60
60
60
ENDCHAR
STARTCHAR m
ENCODING 109
SWIDTH 833 0
DWIDTH 8 0
BBX 8 5 0 0
BITMAP
ac
fe
d6
d6
d7
ENDCHAR
STARTCHAR n
ENCODING 110
SWIDTH 556 0
DWIDTH 6 0
BBX 6 5 0 0
BITMAP
b0
d8
d8
d8
dc
ENDCHAR
STARTCHAR o
ENCODING 111
SWIDTH 500 0
DWIDTH 6 0
BBX 5 5 0 0
BITMAP
70
d8
d8
d8
70
ENDCHAR
STARTCHAR p
ENCODING 112
SWIDTH 556 0
DWIDTH 5 0
BBX 5 8 -1 -3
BITMAP
f0
68
68
68
70
60
60
e0
ENDCHAR
STARTCHAR q
ENCODING 113
SWIDTH 556 0
DWIDTH 5 0
BBX 5 8 0 -3
BITMAP
70
d0
d0
d0
70
30
30
38
ENDCHAR
STARTCHAR r
ENCODING 114
SWIDTH 444 0
DWIDTH 4 0
BBX 4 5 0 0
BITMAP
d0
f0
c0
c0
c0
ENDCHAR
STARTCHAR s
ENCODING 115
SWIDTH 389 0
DWIDTH 4 0
BBX 3 5 0 0
BITMAP
60
c0
e0
60
e0
ENDCHAR
STARTCHAR t
ENCODING 116
SWIDTH 333 0
DWIDTH 4 0
BBX 4 7 -1 0
BITMAP
20
60
f0
60
60
60
30
ENDCHAR
STARTCHAR u
ENCODING 117
SWIDTH 556 0
DWIDTH 5 0
BBX 5 5 0 0
BITMAP
d8
d0
d0
d0
70
ENDCHAR
STARTCHAR v
ENCODING 118
SWIDTH 500 0
DWIDTH 5 0
BBX 5 5 0 0
BITMAP
d8
d0
70
60
20
ENDCHAR
STARTCHAR w
ENCODING 119
SWIDTH 722 0
DWIDTH 6 0
BBX 7 5 -1 0
BITMAP
d6
d4
5c
78
28
ENDCHAR
STARTCHAR x
ENCODING 120
SWIDTH 500 0
DWIDTH 5 0
BBX 4 5 0 0
BITMAP
d0
f0
60
f0
b0
ENDCHAR
STARTCHAR y
ENCODING 121
SWIDTH 500 0
DWIDTH 5 0
BBX 5 8 0 -3
BITMAP
d8
d8
70
70
20
20
c0
c0
ENDCHAR
STARTCHAR z
ENCODING 122
SWIDTH 444 0
DWIDTH 5 0
BBX 4 5 0 0
BITMAP
f0
b0
60
d0
f0
ENDCHAR
STARTCHAR braceleft
ENCODING 123
SWIDTH 394 0
DWIDTH 4 0
BBX 4 10 -1 -3
BITMAP
30
60
60
60
c0
c0
60
60
60
30
ENDCHAR
STARTCHAR bar
ENCODING 124
SWIDTH 220 0
DWIDTH 3 0
BBX 1 10 1 -3
BITMAP
80
80
80
80
80
80
80
80
80
80
ENDCHAR
STARTCHAR braceright
ENCODING 125
SWIDTH 394 0
DWIDTH 4 0
BBX 4 10 0 -3
BITMAP
c0
60
60
60
30
30
60
60
60
c0
ENDCHAR
STARTCHAR asciitilde
ENCODING 126
SWIDTH 520 0
DWIDTH 6 0
BBX 5 2 0 2
BITMAP
68
b0
ENDCHAR
STARTCHAR nobreakspace
ENCODING 160
SWIDTH 250 0
DWIDTH 2 0
BBX 1 1 0 0
BITMAP
00
ENDCHAR
STARTCHAR Aogonek
ENCODING 161
SWIDTH 722 0
DWIDTH 7 0
BBX 8 10 -1 -3
BITMAP
10
18
38
2c
7c
4e
ef
10
20
18
ENDCHAR
STARTCHAR breve
ENCODING 162
SWIDTH 333 0
DWIDTH 4 0
BBX 3 2 0 6
BITMAP
a0
e0
ENDCHAR
STARTCHAR Lstroke
ENCODING 163
SWIDTH 667 0
DWIDTH 7 0
BBX 6 7 0 0
BITMAP
f0
60
70
60
e4
6c
fc
ENDCHAR
STARTCHAR currency
ENCODING 164
SWIDTH 500 0
DWIDTH 6 0
BBX 5 5 0 1
BITMAP
88
70
50
70
88
ENDCHAR
STARTCHAR Lcaron
ENCODING 165
SWIDTH 720 0
DWIDTH 8 0
BBX 7 8 0 0
BITMAP
06
f6
62
60
60
64
6c
fc
ENDCHAR
STARTCHAR Sacute
ENCODING 166
SWIDTH 556 0
DWIDTH 6 0
BBX 5 10 0 0
BITMAP
10
20
00
78
c8
e0
70
38
98
f0
ENDCHAR
STARTCHAR section
ENCODING 167
SWIDTH 500 0
DWIDTH 5 0
BBX 4 9 0 -2
BITMAP
60
b0
c0
a0
d0
70
30
d0
60
ENDCHAR
STARTCHAR diaeresis
ENCODING 168
SWIDTH 333 0
DWIDTH 4 0
BBX 3 1 0 5
BITMAP
a0
ENDCHAR
STARTCHAR Scaron
ENCODING 169
SWIDTH 556 0
DWIDTH 6 0
BBX 5 10 0 0
BITMAP
50
20
00
78
c8
e0
70
38
98
f0
ENDCHAR
STARTCHAR Scedilla
ENCODING 170
SWIDTH 556 0
DWIDTH 6 0
BBX 5 10 0 -3
BITMAP
78
c8
e0
70
38
98
f0
20
10
30
ENDCHAR
STARTCHAR Tcaron
ENCODING 171
SWIDTH 667 0
DWIDTH 7 0
BBX 6 10 0 0
BITMAP
50
20
00
fc
b4
30
30
30
30
78
ENDCHAR
STARTCHAR Zacute
ENCODING 172
SWIDTH 667 0
DWIDTH 7 0
BBX 6 10 0 0
BITMAP
10
20
00
fc
cc
98
30
64
cc
fc
ENDCHAR
STARTCHAR hyphen
ENCODING 173
SWIDTH 333 0
DWIDTH 3 0
BBX 3 1 0 2
BITMAP
e0
ENDCHAR
STARTCHAR Zcaron
ENCODING 174
SWIDTH 667 0
DWIDTH 7 0
BBX 6 10 0 0
BITMAP
50
20
00
fc
cc
98
30
64
cc
fc
ENDCHAR
STARTCHAR Zabovedot
ENCODING 175
SWIDTH 667 0
DWIDTH 7 0
BBX 6 9 0 0
BITMAP
20
00
fc
cc
98
30
64
cc
fc
ENDCHAR
STARTCHAR degree
ENCODING 176
SWIDTH 400 0
DWIDTH 4 0
BBX 4 3 0 4
BITMAP
60
90
60
ENDCHAR
STARTCHAR aogonek
ENCODING 177
SWIDTH 500 0
DWIDTH 5 0
BBX 5 8 0 -3
BITMAP
60
b0
70
b0
f8
20
40
30
ENDCHAR
STARTCHAR ogonek
ENCODING 178
SWIDTH 333 0
DWIDTH 3 0
BBX 3 3 0 -3
BITMAP
40
80
60
ENDCHAR
STARTCHAR lstroke
ENCODING 179
SWIDTH 278 0
DWIDTH 4 0
BBX 4 7 0 0
BITMAP
e0
60
70
60
e0
60
60
ENDCHAR
STARTCHAR acute
ENCODING 180
SWIDTH 333 0
DWIDTH 4 0
BBX 2 2 1 5
BITMAP
40
80
ENDCHAR
STARTCHAR lcaron
ENCODING 181
SWIDTH 540 0
DWIDTH 6 0
BBX 6 8 -1 0
BITMAP
0c
ec
64
60
60
60
60
60
ENDCHAR
STARTCHAR sacute
ENCODING 182
SWIDTH 389 0
DWIDTH 4 0
BBX 3 8 0 0
BITMAP
20
40
00
60
c0
e0
60
e0
ENDCHAR
STARTCHAR caron
ENCODING 183
SWIDTH 333 0
DWIDTH 4 0
BBX 3 2 0 6
BITMAP
a0
40
ENDCHAR
STARTCHAR cedilla
ENCODING 184
SWIDTH 333 0
DWIDTH 3 0
BBX 2 3 1 -3
BITMAP
80
40
c0
ENDCHAR
STARTCHAR scaron
ENCODING 185
SWIDTH 389 0
DWIDTH 4 0
BBX 3 8 0 0
BITMAP
a0
40
00
60
c0
e0
60
e0
ENDCHAR
STARTCHAR scedilla
ENCODING 186
SWIDTH 389 0
DWIDTH 4 0
BBX 3 8 0 -3
BITMAP
60
c0
e0
60
e0
40
20
60
ENDCHAR
STARTCHAR tcaron
ENCODING 187
SWIDTH 540 0
DWIDTH 6 0
BBX 6 9 -1 0
BITMAP
0c
0c
24
60
f0
60
60
60
30
ENDCHAR
STARTCHAR zacute
ENCODING 188
SWIDTH 444 0
DWIDTH 5 0
BBX 4 8 0 0
BITMAP
20
40
00
f0
b0
60
d0
f0
ENDCHAR
STARTCHAR doubleacute
ENCODING 189
SWIDTH 333 0
DWIDTH 4 0
BBX 4 2 0 6
BITMAP
50
a0
ENDCHAR
STARTCHAR zcaron
ENCODING 190
SWIDTH 444 0
DWIDTH 5 0
BBX 4 8 0 0
BITMAP
a0
40
00
f0
b0
60
d0
f0
ENDCHAR
STARTCHAR zabovedot
ENCODING 191
SWIDTH 444 0
DWIDTH 5 0
BBX 4 7 0 0
BITMAP
40
00
f0
b0
60
d0
f0
ENDCHAR
STARTCHAR Racute
ENCODING 192
SWIDTH 722 0
DWIDTH 7 0
BBX 7 10 0 0
BITMAP
10
20
00
f8
6c
6c
78
68
6c
ee
ENDCHAR
STARTCHAR Aacute
ENCODING 193
SWIDTH 722 0
DWIDTH 7 0
BBX 8 10 -1 0
BITMAP
08
10
00
10
18
38
2c
7c
4e
ef
ENDCHAR
STARTCHAR Acircumflex
ENCODING 194
SWIDTH 722 0
DWIDTH 7 0
BBX 8 10 -1 0
BITMAP
10
28
00
10
18
38
2c
7c
4e
ef
ENDCHAR
STARTCHAR Abreve
ENCODING 195
SWIDTH 722 0
DWIDTH 7 0
BBX 8 10 -1 0
BITMAP
28
38
00
10
18
38
2c
7c
4e
ef
ENDCHAR
STARTCHAR Adiaeresis
ENCODING 196
SWIDTH 722 0
DWIDTH 7 0
BBX 8 9 -1 0
BITMAP
24
00
10
18
38
2c
7c
4e
ef
ENDCHAR
STARTCHAR Lacute
ENCODING 197
SWIDTH 667 0
DWIDTH 7 0
BBX 6 10 0 0
BITMAP
20
40
00
f0
60
60
60
64
6c
fc
ENDCHAR
STARTCHAR Cacute
ENCODING 198
SWIDTH 722 0
DWIDTH 7 0
BBX 6 10 0 0
BITMAP
10
20
00
7c
cc
c0
c0
c0
ec
78
ENDCHAR
STARTCHAR Ccedilla
ENCODING 199
SWIDTH 722 0
DWIDTH 7 0
BBX 6 10 0 -3
BITMAP
7c
cc
c0
c0
c0
ec
78
20
10
30
ENDCHAR
STARTCHAR Ccaron
ENCODING 200
SWIDTH 722 0
DWIDTH 7 0
BBX 6 10 0 0
BITMAP
50
20
00
7c
cc
c0
c0
c0
ec
78
ENDCHAR
STARTCHAR Eacute
ENCODING 201
SWIDTH 667 0
DWIDTH 7 0
BBX 6 10 0 0
BITMAP
08
10
00
fc
64
60
78
60
64
fc
ENDCHAR
STARTCHAR Eogonek
ENCODING 202
SWIDTH 667 0
DWIDTH 7 0
BBX 6 10 0 -3
BITMAP
fc
64
60
78
60
64
fc
20
40
30
ENDCHAR
STARTCHAR Ediaeresis
ENCODING 203
SWIDTH 667 0
DWIDTH 7 0
BBX 6 9 0 0
BITMAP
28
00
fc
64
60
78
60
64
fc
ENDCHAR
STARTCHAR Ecaron
ENCODING 204
SWIDTH 667 0
DWIDTH 7 0
BBX 6 10 0 0
BITMAP
50
20
00
fc
64
60
78
60
64
fc
ENDCHAR
STARTCHAR Iacute
ENCODING 205
SWIDTH 389 0
DWIDTH 5 0
BBX 4 10 0 0
BITMAP
20
40
00
f0
60
60
60
60
60
f0
ENDCHAR
STARTCHAR Icircumflex
ENCODING 206
SWIDTH 389 0
DWIDTH 5 0
BBX 4 10 0 0
BITMAP
60
90
00
f0
60
60
60
60
60
f0
ENDCHAR
STARTCHAR Dcaron
ENCODING 207
SWIDTH 722 0
DWIDTH 8 0
BBX 7 10 0 0
BITMAP
28
10
00
fc
66
66
66
66
66
fc
ENDCHAR
STARTCHAR Dstroke
ENCODING 208
SWIDTH 722 0
DWIDTH 8 0
BBX 7 7 0 0
BITMAP
fc
66
66
f6
66
66
fc
ENDCHAR
STARTCHAR Nacute
ENCODING 209
SWIDTH 722 0
DWIDTH 8 0
BBX 7 10 0 0
BITMAP
08
10
00
ee
64
74
5c
5c
4c
e4
ENDCHAR
STARTCHAR Ncaron
ENCODING 210
SWIDTH 722 0
DWIDTH 8 0
BBX 7 10 0 0
BITMAP
28
10
00
ee
64
74
5c
5c
4c
e4
ENDCHAR
STARTCHAR Oacute
ENCODING 211
SWIDTH 778 0
DWIDTH 7 0
BBX 6 10 0 0
BITMAP
10
20
00
78
cc
cc
cc
cc
cc
78
ENDCHAR
STARTCHAR Ocircumflex
ENCODING 212
SWIDTH 778 0
DWIDTH 7 0
BBX 6 10 0 0
BITMAP
30
48
00
78
cc
cc
cc
cc
cc
78
ENDCHAR
STARTCHAR Odoubleacute
ENCODING 213
SWIDTH 778 0
DWIDTH 7 0
BBX 6 10 0 0
BITMAP
28
50
00
78
cc
cc
cc
cc
cc
78
ENDCHAR
STARTCHAR Odiaeresis
ENCODING 214
SWIDTH 778 0
DWIDTH 7 0
BBX 6 9 0 0
BITMAP
48
00
78
cc
cc
cc
cc
cc
78
ENDCHAR
STARTCHAR multiply
ENCODING 215
SWIDTH 570 0
DWIDTH 6 0
BBX 6 5 0 0
BITMAP
cc
78
30
78
cc
ENDCHAR
STARTCHAR Rcaron
ENCODING 216
SWIDTH 722 0
DWIDTH 7 0
BBX 7 10 0 0
BITMAP
50
20
00
f8
6c
6c
78
68
6c
ee
ENDCHAR
STARTCHAR Uring
ENCODING 217
SWIDTH 722 0
DWIDTH 7 0
BBX 7 11 0 0
BITMAP
10
28
10
00
f6
64
64
64
64
64
38
ENDCHAR
STARTCHAR Uacute
ENCODING 218
SWIDTH 722 0
DWIDTH 7 0
BBX 7 10 0 0
BITMAP
08
10
00
f6
64
64
64
64
64
38
ENDCHAR
STARTCHAR Udoubleacute
ENCODING 219
SWIDTH 722 0
DWIDTH 7 0
BBX 7 10 0 0
BITMAP
14
28
00
f6
64
64
64
64
64
38
ENDCHAR
STARTCHAR Udiaeresis
ENCODING 220
SWIDTH 722 0
DWIDTH 7 0
BBX 7 9 0 0
BITMAP
24
00
f6
64
64
64
64
64
38
ENDCHAR
STARTCHAR Yacute
ENCODING 221
SWIDTH 722 0
DWIDTH 8 0
BBX 8 10 0 0
BITMAP
04
08
00
f7
62
34
38
18
18
3c
ENDCHAR
STARTCHAR Tcedilla
ENCODING 222
SWIDTH 667 0
DWIDTH 7 0
BBX 6 10 0 -3
BITMAP
fc
b4
30
30
30
30
78
20
10
30
ENDCHAR
STARTCHAR ssharp
ENCODING 223
SWIDTH 556 0
DWIDTH 6 0
BBX 5 7 0 0
BITMAP
70
c8
c8
d0
c8
c8
d8
ENDCHAR
STARTCHAR racute
ENCODING 224
SWIDTH 444 0
DWIDTH 4 0
BBX 4 8 0 0
BITMAP
20
40
00
d0
f0
c0
c0
c0
ENDCHAR
STARTCHAR aacute
ENCODING 225
SWIDTH 500 0
DWIDTH 5 0
BBX 5 8 0 0
BITMAP
10
20
00
60
b0
70
b0
f8
ENDCHAR
STARTCHAR acircumflex
ENCODING 226
SWIDTH 500 0
DWIDTH 5 0
BBX 5 8 0 0
BITMAP
20
50
00
60
b0
70
b0
f8
ENDCHAR
STARTCHAR abreve
ENCODING 227
SWIDTH 500 0
DWIDTH 5 0
BBX 5 8 0 0
BITMAP
a0
e0
00
60
b0
70
b0
f8
ENDCHAR
STARTCHAR adiaeresis
ENCODING 228
SWIDTH 500 0
DWIDTH 5 0
BBX 5 7 0 0
BITMAP
50
00
60
b0
70
b0
f8
ENDCHAR
STARTCHAR lacute
ENCODING 229
SWIDTH 278 0
DWIDTH 3 0
BBX 3 10 -1 0
BITMAP
20
40
00
e0
60
60
60
60
60
60
ENDCHAR
STARTCHAR cacute
ENCODING 230
SWIDTH 444 0
DWIDTH 5 0
BBX 4 8 0 0
BITMAP
20
40
00
70
d0
c0
d0
70
ENDCHAR
STARTCHAR ccedilla
ENCODING 231
SWIDTH 444 0
DWIDTH 5 0
BBX 4 8 0 -3
BITMAP
70
d0
c0
d0
70
40
20
60
ENDCHAR
STARTCHAR ccaron
ENCODING 232
SWIDTH 444 0
DWIDTH 5 0
BBX 4 8 0 0
BITMAP
a0
40
00
70
d0
c0
d0
70
ENDCHAR
STARTCHAR eacute
ENCODING 233
SWIDTH 444 0
DWIDTH 5 0
BBX 4 8 0 0
BITMAP
10
20
00
70
d0
f0
c0
70
ENDCHAR
STARTCHAR eogonek
ENCODING 234
SWIDTH 444 0
DWIDTH 5 0
BBX 4 8 0 -3
BITMAP
70
d0
f0
c0
70
40
80
60
ENDCHAR
STARTCHAR ediaeresis
ENCODING 235
SWIDTH 444 0
DWIDTH 5 0
BBX 4 7 0 0
BITMAP
50
00
70
d0
f0
c0
70
ENDCHAR
STARTCHAR ecaron
ENCODING 236
SWIDTH 444 0
DWIDTH 5 0
BBX 4 8 0 0
BITMAP
a0
40
00
70
d0
f0
c0
70
ENDCHAR
STARTCHAR iacute
ENCODING 237
SWIDTH 278 0
DWIDTH 3 0
BBX 2 8 0 0
BITMAP
40
80
00
c0
c0
c0
c0
c0
ENDCHAR
STARTCHAR icircumflex
ENCODING 238
SWIDTH 278 0
DWIDTH 3 0
BBX 3 8 0 0
BITMAP
40
a0
00
c0
c0
c0
c0
c0
ENDCHAR
STARTCHAR dcaron
ENCODING 239
SWIDTH 720 0
DWIDTH 8 0
BBX 8 8 0 0
BITMAP
03
3b
19
78
d8
d8
d8
6c
ENDCHAR
STARTCHAR dstroke
ENCODING 240
SWIDTH 630 0
DWIDTH 7 0
BBX 7 7 0 0
BITMAP
7e
18
78
d8
d8
d8
6c
ENDCHAR
STARTCHAR nacute
ENCODING 241
SWIDTH 556 0
DWIDTH 6 0
BBX 6 8 0 0
BITMAP
10
20
00
b0
d8
d8
d8
dc
ENDCHAR
STARTCHAR ncaron
ENCODING 242
SWIDTH 556 0
DWIDTH 6 0
BBX 6 8 0 0
BITMAP
50
20
00
b0
d8
d8
d8
dc
ENDCHAR
STARTCHAR oacute
ENCODING 243
SWIDTH 500 0
DWIDTH 6 0
BBX 5 8 0 0
BITMAP
10
20
00
70
d8
d8
d8
70
ENDCHAR
STARTCHAR ocircumflex
ENCODING 244
SWIDTH 500 0
DWIDTH 6 0
BBX 5 8 0 0
BITMAP
20
50
00
70
d8
d8
d8
70
ENDCHAR
STARTCHAR odoubleacute
ENCODING 245
SWIDTH 500 0
DWIDTH 6 0
BBX 5 8 0 0
BITMAP
28
50
00
70
d8
d8
d8
70
ENDCHAR
STARTCHAR odiaeresis
ENCODING 246
SWIDTH 500 0
DWIDTH 6 0
BBX 5 7 0 0
BITMAP
50
00
70
d8
d8
d8
70
ENDCHAR
STARTCHAR division
ENCODING 247
SWIDTH 570 0
DWIDTH 6 0
BBX 5 5 0 0
BITMAP
20
00
f8
00
20
ENDCHAR
STARTCHAR rcaron
ENCODING 248
SWIDTH 444 0
DWIDTH 4 0
BBX 4 8 0 0
BITMAP
a0
40
00
d0
f0
c0
c0
c0
ENDCHAR
STARTCHAR uring
ENCODING 249
SWIDTH 556 0
DWIDTH 5 0
BBX 5 9 0 0
BITMAP
20
50
20
00
d8
d0
d0
d0
70
ENDCHAR
STARTCHAR uacute
ENCODING 250
SWIDTH 556 0
DWIDTH 5 0
BBX 5 8 0 0
BITMAP
10
20
00
d8
d0
d0
d0
70
ENDCHAR
STARTCHAR udoubleacute
ENCODING 251
SWIDTH 556 0
DWIDTH 5 0
BBX 5 8 0 0
BITMAP
28
50
00
d8
d0
d0
d0
70
ENDCHAR
STARTCHAR udiaeresis
ENCODING 252
SWIDTH 556 0
DWIDTH 5 0
BBX 5 7 0 0
BITMAP
50
00
d8
d0
d0
d0
70
ENDCHAR
STARTCHAR yacute
ENCODING 253
SWIDTH 500 0
DWIDTH 5 0
BBX 5 11 0 -3
BITMAP
10
20
00
d8
d8
70
70
20
20
c0
c0
ENDCHAR
STARTCHAR tcedilla
ENCODING 254
SWIDTH 333 0
DWIDTH 4 0
BBX 4 10 -1 -3
BITMAP
20
60
f0
60
60
60
30
40
20
60
ENDCHAR
STARTCHAR abovedot
ENCODING 255
SWIDTH 333 0
DWIDTH 4 0
BBX 1 1 1 6
BITMAP
80
ENDCHAR
ENDFONT
